<svg width="17" height="16" viewBox="0 0 17 16" fill="none" xmlns="http://www.w3.org/2000/svg">
<path d="M14.8636 11.1667C14.6436 12.9401 13.1902 14.3934 11.4169 14.6134C10.3436 14.7467 9.34357 14.4534 8.56357 13.8801C8.1169 13.5534 8.22357 12.8601 8.7569 12.7001C10.7636 12.0934 12.3436 10.5067 12.9569 8.50006C13.1169 7.9734 13.8102 7.86673 14.1369 8.30673C14.7036 9.0934 14.9969 10.0934 14.8636 11.1667Z" fill="#492264"/>
<path d="M6.90967 1.3335C3.96967 1.3335 1.58301 3.72016 1.58301 6.66016C1.58301 9.60016 3.96967 11.9868 6.90967 11.9868C9.84967 11.9868 12.2363 9.60016 12.2363 6.66016C12.2297 3.72016 9.84967 1.3335 6.90967 1.3335ZM6.28301 5.9135L7.88967 6.4735C8.46967 6.68016 8.74967 7.08683 8.74967 7.7135C8.74967 8.4335 8.17634 9.02683 7.47634 9.02683H7.41634V9.06016C7.41634 9.3335 7.18967 9.56016 6.91634 9.56016C6.64301 9.56016 6.41634 9.3335 6.41634 9.06016V9.02016C5.67634 8.98683 5.08301 8.36683 5.08301 7.5935C5.08301 7.32016 5.30967 7.0935 5.58301 7.0935C5.85634 7.0935 6.08301 7.32016 6.08301 7.5935C6.08301 7.8335 6.25634 8.02683 6.46967 8.02683H7.46967C7.62301 8.02683 7.74301 7.88683 7.74301 7.7135C7.74301 7.48016 7.70301 7.46683 7.54967 7.4135L5.94301 6.8535C5.36967 6.6535 5.08301 6.24683 5.08301 5.6135C5.08301 4.8935 5.65634 4.30016 6.35634 4.30016H6.41634V4.2735C6.41634 4.00016 6.64301 3.7735 6.91634 3.7735C7.18967 3.7735 7.41634 4.00016 7.41634 4.2735V4.3135C8.15634 4.34683 8.74967 4.96683 8.74967 5.74016C8.74967 6.0135 8.52301 6.24016 8.24967 6.24016C7.97634 6.24016 7.74967 6.0135 7.74967 5.74016C7.74967 5.50016 7.57634 5.30683 7.36301 5.30683H6.36301C6.20967 5.30683 6.08967 5.44683 6.08967 5.62016C6.08301 5.84683 6.12301 5.86016 6.28301 5.9135Z" fill="#6A4690"/>
</svg>
