<svg width="16" height="16" viewBox="0 0 16 16" fill="none" xmlns="http://www.w3.org/2000/svg">
<mask id="path-1-inside-1_9304_20925" fill="white">
<path d="M7.99967 14.4331C7.79301 14.4331 7.59301 14.4064 7.42634 14.3464C4.87967 13.4731 0.833008 10.3731 0.833008 5.79307C0.833008 3.45974 2.71967 1.56641 5.03967 1.56641C6.16634 1.56641 7.21967 2.00641 7.99967 2.79307C8.77967 2.00641 9.83301 1.56641 10.9597 1.56641C13.2797 1.56641 15.1663 3.46641 15.1663 5.79307C15.1663 10.3797 11.1197 13.4731 8.57301 14.3464C8.40634 14.4064 8.20634 14.4331 7.99967 14.4331ZM5.03967 2.56641C3.27301 2.56641 1.83301 4.01307 1.83301 5.79307C1.83301 10.3464 6.21301 12.8797 7.75301 13.4064C7.87301 13.4464 8.13301 13.4464 8.25301 13.4064C9.78634 12.8797 14.173 10.3531 14.173 5.79307C14.173 4.01307 12.733 2.56641 10.9663 2.56641C9.95301 2.56641 9.01301 3.03974 8.40634 3.85974C8.21967 4.11307 7.79301 4.11307 7.60634 3.85974C6.98634 3.03307 6.05301 2.56641 5.03967 2.56641Z"/>
</mask>
<path d="M7.99967 14.4331C7.79301 14.4331 7.59301 14.4064 7.42634 14.3464C4.87967 13.4731 0.833008 10.3731 0.833008 5.79307C0.833008 3.45974 2.71967 1.56641 5.03967 1.56641C6.16634 1.56641 7.21967 2.00641 7.99967 2.79307C8.77967 2.00641 9.83301 1.56641 10.9597 1.56641C13.2797 1.56641 15.1663 3.46641 15.1663 5.79307C15.1663 10.3797 11.1197 13.4731 8.57301 14.3464C8.40634 14.4064 8.20634 14.4331 7.99967 14.4331ZM5.03967 2.56641C3.27301 2.56641 1.83301 4.01307 1.83301 5.79307C1.83301 10.3464 6.21301 12.8797 7.75301 13.4064C7.87301 13.4464 8.13301 13.4464 8.25301 13.4064C9.78634 12.8797 14.173 10.3531 14.173 5.79307C14.173 4.01307 12.733 2.56641 10.9663 2.56641C9.95301 2.56641 9.01301 3.03974 8.40634 3.85974C8.21967 4.11307 7.79301 4.11307 7.60634 3.85974C6.98634 3.03307 6.05301 2.56641 5.03967 2.56641Z" fill="#6A4690"/>
<path d="M7.42634 14.3464L7.93442 12.9351L7.9237 12.9312L7.91292 12.9275L7.42634 14.3464ZM7.99967 2.79307L6.93451 3.84921L7.99967 4.92348L9.06484 3.84921L7.99967 2.79307ZM8.57301 14.3464L8.08643 12.9275L8.07565 12.9312L8.06493 12.9351L8.57301 14.3464ZM7.75301 13.4064L7.26761 14.8257L7.27867 14.8294L7.75301 13.4064ZM8.25301 13.4064L8.72737 14.8295L8.74028 14.8251L8.25301 13.4064ZM8.40634 3.85974L7.20048 2.9676L7.19876 2.96994L8.40634 3.85974ZM7.60634 3.85974L8.81397 2.96991L8.80634 2.95974L7.60634 3.85974ZM7.99967 14.4331V12.9331C7.95944 12.9331 7.93117 12.9304 7.91551 12.9281C7.90814 12.927 7.9059 12.9264 7.90837 12.927C7.91076 12.9275 7.91979 12.9298 7.93442 12.9351L7.42634 14.3464L6.91826 15.7577C7.2959 15.8937 7.67947 15.9331 7.99967 15.9331V14.4331ZM7.42634 14.3464L7.91292 12.9275C6.87972 12.5732 5.44437 11.721 4.2824 10.4483C3.13398 9.19054 2.33301 7.61564 2.33301 5.79307H0.833008H-0.666992C-0.666992 8.5505 0.555364 10.8156 2.06695 12.4711C3.56498 14.1119 5.42629 15.2463 6.93976 15.7653L7.42634 14.3464ZM0.833008 5.79307H2.33301C2.33301 4.28198 3.55427 3.06641 5.03967 3.06641V1.56641V0.0664062C1.88508 0.0664062 -0.666992 2.63749 -0.666992 5.79307H0.833008ZM5.03967 1.56641V3.06641C5.76894 3.06641 6.43803 3.34848 6.93451 3.84921L7.99967 2.79307L9.06484 1.73694C8.00132 0.664331 6.56374 0.0664062 5.03967 0.0664062V1.56641ZM7.99967 2.79307L9.06484 3.84921C9.56132 3.34848 10.2304 3.06641 10.9597 3.06641V1.56641V0.0664062C9.43561 0.0664062 7.99803 0.664331 6.93451 1.73694L7.99967 2.79307ZM10.9597 1.56641V3.06641C12.4435 3.06641 13.6663 4.28711 13.6663 5.79307H15.1663H16.6663C16.6663 2.6457 14.1158 0.0664062 10.9597 0.0664062V1.56641ZM15.1663 5.79307H13.6663C13.6663 7.61932 12.8651 9.19408 11.7172 10.4505C10.5557 11.7219 9.12045 12.5729 8.08643 12.9275L8.57301 14.3464L9.05959 15.7653C10.5722 15.2466 12.4336 14.1142 13.9321 12.474C15.4443 10.8187 16.6663 8.55349 16.6663 5.79307H15.1663ZM8.57301 14.3464L8.06493 12.9351C8.07956 12.9298 8.08859 12.9275 8.09098 12.927C8.09345 12.9264 8.09121 12.927 8.08384 12.9281C8.06818 12.9304 8.03991 12.9331 7.99967 12.9331V14.4331V15.9331C8.31988 15.9331 8.70345 15.8937 9.08109 15.7577L8.57301 14.3464ZM5.03967 2.56641V1.06641C2.4365 1.06641 0.333008 3.19275 0.333008 5.79307H1.83301H3.33301C3.33301 4.8334 4.10952 4.06641 5.03967 4.06641V2.56641ZM1.83301 5.79307H0.333008C0.333008 8.5915 1.68778 10.7252 3.16283 12.1783C4.61912 13.6129 6.29606 14.4934 7.26762 14.8257L7.75301 13.4064L8.23839 11.9871C7.66996 11.7927 6.3869 11.1432 5.26818 10.0412C4.16823 8.95758 3.33301 7.54798 3.33301 5.79307H1.83301ZM7.75301 13.4064L7.27867 14.8294C7.56672 14.9254 7.85173 14.9364 8.00301 14.9364C8.15428 14.9364 8.4393 14.9254 8.72735 14.8294L8.25301 13.4064L7.77867 11.9834C7.88411 11.9482 7.95752 11.9401 7.96838 11.9389C7.99008 11.9364 8.00084 11.9364 8.00301 11.9364C8.00518 11.9364 8.01593 11.9364 8.03764 11.9389C8.0485 11.9401 8.1219 11.9482 8.22735 11.9834L7.75301 13.4064ZM8.25301 13.4064L8.74028 14.8251C9.70603 14.4933 11.3824 13.6155 12.84 12.1815C14.3162 10.7292 15.673 8.59521 15.673 5.79307H14.173H12.673C12.673 7.55093 11.8365 8.96032 10.736 10.043C9.6169 11.144 8.33331 11.7928 7.76573 11.9878L8.25301 13.4064ZM14.173 5.79307H15.673C15.673 3.19275 13.5695 1.06641 10.9663 1.06641V2.56641V4.06641C11.8965 4.06641 12.673 4.8334 12.673 5.79307H14.173ZM10.9663 2.56641V1.06641C9.47623 1.06641 8.0893 1.76624 7.20048 2.9676L8.40634 3.85974L9.6122 4.75188C9.93672 4.31324 10.4298 4.06641 10.9663 4.06641V2.56641ZM8.40634 3.85974L7.19876 2.96994C7.43741 2.64606 7.77269 2.54974 8.00634 2.54974C8.23999 2.54974 8.57527 2.64606 8.81392 2.96994L7.60634 3.85974L6.39876 4.74954C6.82408 5.32676 7.46602 5.54974 8.00634 5.54974C8.54666 5.54974 9.18861 5.32676 9.61392 4.74954L8.40634 3.85974ZM7.60634 3.85974L8.80634 2.95974C7.90613 1.75946 6.53024 1.06641 5.03967 1.06641V2.56641V4.06641C5.57578 4.06641 6.06655 4.30669 6.40634 4.75974L7.60634 3.85974Z" fill="#6A4690" mask="url(#path-1-inside-1_9304_20925)"/>
</svg>
