<svg width="57" height="30" viewBox="0 0 57 30" fill="none" xmlns="http://www.w3.org/2000/svg">
<path d="M1.55392 12.4313C2.27162 12.839 3.13611 13.0348 4.13109 13.0348H4.89772C5.1587 13.0348 5.48492 12.9043 5.86008 12.6433C6.23524 12.3824 6.43097 12.154 6.43097 11.9583C6.43097 11.8768 6.36573 11.8441 6.25155 11.8441H5.20763C4.31052 11.8441 3.5602 11.6647 2.973 11.3222C2.38579 10.9797 2.09219 10.4415 2.09219 9.72386C2.09219 9.34874 2.14113 9.13671 2.23899 9.07147C2.35317 9.00623 2.58153 8.9573 2.95669 8.92468C3.33184 8.89206 3.707 8.85944 4.06585 8.85944H11.9931C13.1023 9.18564 13.8852 9.34874 14.3419 9.34874C14.6844 9.34874 15.0433 9.18564 15.4348 8.85944C15.5326 8.77789 15.6305 8.68003 15.7284 8.54955C15.8262 8.41907 15.8752 8.32121 15.8752 8.23966C15.8752 8.17442 15.8425 8.14181 15.7773 8.14181C14.4887 7.99502 13.1186 7.58727 11.6506 6.95119C10.1825 6.3151 8.7961 5.54854 7.50751 4.65149C6.21893 3.75445 5.1587 2.8411 4.35945 1.92775C4.26158 1.81358 4.18003 1.76465 4.09847 1.76465C3.88643 1.76465 3.59282 1.91144 3.21767 2.1887C2.84251 2.46597 2.66308 2.678 2.66308 2.8411C2.66308 2.89003 2.69571 2.95527 2.77726 3.05313C3.44602 3.90124 4.4247 4.76566 5.71328 5.63009C7.00186 6.49451 8.2252 7.1469 9.3833 7.55465H6.20262C5.51755 7.55465 4.99559 7.57096 4.62043 7.58727C4.24527 7.60358 3.91905 7.65251 3.62545 7.71775C2.8262 7.88085 2.09219 8.23967 1.45606 8.74527C0.819919 9.26719 0.493696 9.90327 0.493696 10.6372C0.477385 11.4527 0.836231 12.0236 1.55392 12.4313Z" fill="white"/>
<path d="M9.67699 11.0611C9.36708 10.8002 9.15503 10.6697 9.00823 10.6697C8.84512 10.6697 8.58414 10.8165 8.19267 11.0937C7.8012 11.3873 7.60547 11.5993 7.60547 11.7298C7.60547 11.7787 7.6544 11.844 7.76858 11.9092C7.948 12.0397 8.17636 12.2354 8.42103 12.5453C8.50258 12.6595 8.56783 12.7084 8.63307 12.7084C8.8125 12.7084 9.1061 12.5616 9.51388 12.2844C9.92166 11.9908 10.1174 11.7787 10.1174 11.6483C10.1337 11.5178 9.9869 11.3221 9.67699 11.0611Z" fill="white"/>
<path d="M17.0496 8.87553H28.6306C28.9894 8.87553 29.332 8.74505 29.6582 8.48409C29.9844 8.22314 30.1802 7.96218 30.2128 7.70122C30.2291 7.58705 30.2291 7.35871 30.2291 6.98359C30.2291 5.43415 29.8539 4.3577 29.1199 3.75423C28.3696 3.15077 27.2441 2.84088 25.7272 2.84088H21.1601C20.7034 2.84088 20.4098 2.75933 20.263 2.57992C20.1162 2.41682 20.0346 2.07432 20.0346 1.58502C20.0346 1.48716 19.9857 1.43823 19.8878 1.43823C19.6921 1.43823 19.3985 1.56871 19.0233 1.82967C18.6481 2.09063 18.4524 2.31897 18.4524 2.49837C18.4524 3.13446 18.5992 3.55852 18.8765 3.77054C19.1538 3.98257 19.6431 4.09674 20.3445 4.09674H24.2755C25.3194 4.09674 26.1513 4.1946 26.7711 4.40663C27.3909 4.61866 27.864 4.97747 28.1739 5.48308C28.4838 5.98869 28.6469 6.6737 28.6469 7.57074H18.1914C17.9794 7.57074 17.6858 7.71753 17.3432 8.02742C17.0007 8.33731 16.8213 8.56564 16.8213 8.74505C16.8213 8.84291 16.8865 8.87553 17.0496 8.87553Z" fill="white"/>
<path d="M55.3969 3.16733C54.6466 2.4497 53.5211 2.09088 52.0042 2.09088H46.5073C46.0506 2.09088 45.757 2.00933 45.6102 1.82992C45.4634 1.66682 45.3819 1.32432 45.3819 0.835021C45.3819 0.737162 45.3329 0.688232 45.2351 0.688232C45.0393 0.688232 44.7457 0.818712 44.3706 1.07967C43.9954 1.34063 43.7997 1.56897 43.7997 1.74837C43.7997 2.36815 43.9302 2.7759 44.2075 2.97161C44.4847 3.16733 44.9741 3.26519 45.6918 3.26519H45.8712C45.0883 3.9339 44.7131 4.74939 44.7131 5.71167C44.7131 6.4293 44.9415 7.04908 45.3819 7.60362H42.8862H41.4835V6.16835C41.4835 4.96142 41.1409 3.98283 40.4559 3.23257C39.7708 2.48232 38.89 2.10719 37.7972 2.10719C36.9979 2.10719 36.2639 2.2866 35.5788 2.64542C34.8938 3.00423 34.3392 3.49353 33.9314 4.09699C33.5236 4.71677 33.3116 5.38547 33.3116 6.10311C33.3116 7.96243 34.9427 8.89209 38.2049 8.89209H39.885C39.8361 9.36508 39.6729 9.7239 39.3793 9.96855C39.0857 10.2132 38.678 10.3926 38.1397 10.5231C37.6177 10.6372 37.0631 10.7025 36.4923 10.7025C35.6115 10.7025 34.6491 10.5883 33.6378 10.3763C33.3605 10.3274 33.1158 10.2784 32.9201 10.2295C32.7244 10.1806 32.5939 10.148 32.5286 10.148C32.3492 10.148 32.0719 10.2947 31.7131 10.5883C31.3542 10.8819 31.1748 11.0776 31.1748 11.1918C31.1748 11.2896 31.3705 11.3875 31.762 11.5017C32.5449 11.7137 33.6052 11.8279 34.9427 11.8279C35.9377 11.8279 36.8185 11.7463 37.5851 11.5669C38.3517 11.4038 39.0694 11.0939 39.7219 10.6372C40.4396 10.148 40.9452 9.5608 41.2388 8.90841H42.9189H54.9239C55.2828 8.8921 55.6253 8.76161 55.9515 8.51697C56.2777 8.27232 56.4572 8.01136 56.4898 7.7504C56.5061 7.63623 56.5061 7.4079 56.5061 7.03277C56.5061 5.15714 56.1472 3.88497 55.3969 3.16733ZM39.9013 7.58731H39.0205C37.7319 7.58731 36.7369 7.39159 36.0192 7.00015C35.3015 6.60871 34.9427 5.98894 34.9427 5.17344C34.9427 4.91249 34.9916 4.63522 35.0895 4.34164C35.1874 4.04807 35.2852 3.81973 35.4157 3.64032C35.7093 3.39567 36.0845 3.26519 36.5575 3.26519C37.1936 3.26519 37.7645 3.42829 38.2865 3.7708C38.7921 4.09699 39.1999 4.56998 39.4772 5.14083C39.7708 5.72798 39.9013 6.38038 39.9013 7.11432V7.58731ZM50.1447 7.01646C50.0795 7.29373 49.9979 7.47314 49.9001 7.571L49.8838 7.58731H48.742C48.0243 7.44052 47.4371 7.11432 46.9804 6.57609C46.5236 6.03787 46.2953 5.40178 46.2953 4.65153C46.2953 4.17854 46.3932 3.80342 46.6052 3.54246C46.6378 3.49353 46.752 3.46091 46.9477 3.42829C47.1435 3.39567 47.3392 3.37936 47.5023 3.37936C47.9427 3.37936 48.3668 3.50984 48.7909 3.75449C49.215 3.99913 49.5738 4.34164 49.8348 4.78201C50.1121 5.22237 50.2426 5.69536 50.2426 6.20097C50.2589 6.47823 50.2263 6.7555 50.1447 7.01646ZM50.9114 7.58731C51.205 7.27742 51.4333 6.9186 51.6127 6.52716C51.7759 6.13573 51.8737 5.71167 51.8737 5.28762C51.8737 4.50474 51.629 3.85235 51.156 3.2815C52.4609 3.36305 53.407 3.72187 54.0105 4.37426C54.614 5.02666 54.9076 6.10311 54.9239 7.58731H50.9114Z" fill="white"/>
<path d="M7.57289 16.0356C7.37715 16.0356 7.09986 16.1661 6.70839 16.4434C6.31692 16.7043 6.12119 16.9327 6.12119 17.1284V20.423H2.25543V16.1824C2.25543 16.0846 2.2065 16.0356 2.09232 16.0356C1.89659 16.0356 1.6193 16.1661 1.22783 16.4434C0.83636 16.7043 0.640625 16.9327 0.640625 17.1284V26.2782C0.640625 26.3924 0.689559 26.4413 0.803737 26.4413C0.917915 26.4413 1.08103 26.3761 1.3257 26.2456C1.57036 26.1151 1.78241 25.9684 1.96183 25.7889C2.15757 25.6095 2.23912 25.4627 2.23912 25.316V21.8093H6.12119V26.2619C6.12119 26.3761 6.17012 26.425 6.2843 26.425C6.39848 26.425 6.56159 26.3598 6.80626 26.2293C7.05093 26.0988 7.26297 25.952 7.4424 25.7726C7.63813 25.5932 7.71969 25.4464 7.71969 25.2996V16.1498C7.75231 16.0846 7.68706 16.0356 7.57289 16.0356Z" fill="white"/>
<path d="M14.8646 16.0356C13.5923 16.0356 12.5811 16.476 11.8634 17.3567C11.1457 18.2375 10.7705 19.6564 10.7705 21.6136C10.7705 24.8267 11.847 26.4413 13.9838 26.4413C15.3703 26.4413 16.3979 25.9357 17.0829 24.9408C17.768 23.9459 18.0942 22.2334 18.0942 19.8358C18.0942 18.6452 17.8006 17.7156 17.2134 17.0469C16.6589 16.3782 15.8596 16.0356 14.8646 16.0356ZM16.2511 23.7828C16.1206 24.5168 15.9901 24.9571 15.8596 25.0876C15.7128 25.2344 15.4518 25.2996 15.0604 25.2996C14.31 25.2996 13.7391 25.0713 13.364 24.6309C12.9888 24.1906 12.7442 23.6197 12.6137 22.9021C12.4995 22.1845 12.4342 21.32 12.4342 20.2762C12.4342 19.4933 12.4995 18.8409 12.6137 18.3516C12.7279 17.8623 12.842 17.5688 12.9562 17.4546C13.0215 17.3894 13.1683 17.3404 13.3803 17.2752C13.6087 17.2263 13.8207 17.1936 14.0491 17.1936C14.7994 17.1936 15.4029 17.5198 15.827 18.1885C16.2511 18.8573 16.4631 19.8032 16.4631 21.0265C16.4468 22.1192 16.3816 23.0326 16.2511 23.7828Z" fill="white"/>
<path d="M32.5618 16.0358C32.2356 16.0358 31.8767 16.0684 31.5016 16.15C31.1264 16.2315 30.9307 16.3783 30.898 16.574C30.7512 17.7973 30.4576 19.1836 30.0172 20.6841C29.5768 22.2009 29.1201 23.5546 28.6471 24.7779C28.2556 23.6851 27.7989 22.3151 27.277 20.6515C26.755 18.9879 26.3146 17.52 25.9721 16.2641C25.9231 16.101 25.8579 16.0195 25.76 16.0195C25.5806 16.0195 25.3196 16.1663 24.9445 16.4599C24.5693 16.7534 24.3899 16.9655 24.3899 17.0796C24.3899 17.1286 24.4225 17.2917 24.5041 17.5526C24.9445 18.9716 25.3359 20.1459 25.6948 21.0755C25.3522 21.9889 24.8303 23.2284 24.1615 24.7616C23.77 23.6688 23.3133 22.2988 22.7914 20.6515C22.2694 18.9879 21.829 17.5363 21.4865 16.2478C21.4375 16.0847 21.3723 16.0032 21.2744 16.0032C21.095 16.0032 20.834 16.15 20.4589 16.4435C20.0837 16.7371 19.9043 16.9491 19.9043 17.0633C19.9043 17.1122 19.9369 17.2753 20.0185 17.5363C20.4263 18.7922 20.9319 20.26 21.5028 21.9073C22.09 23.5546 22.612 24.9736 23.085 26.1805C23.1502 26.3436 23.2481 26.4252 23.3623 26.4252C23.5906 26.4252 23.8353 26.3926 24.1126 26.3273C24.3899 26.2621 24.5693 26.1805 24.6019 26.0664C25.0749 25.1367 25.5969 23.9787 26.1841 22.5924C26.8202 24.2886 27.277 25.4955 27.5542 26.1805C27.6195 26.3436 27.7174 26.4252 27.8315 26.4252C28.0599 26.4252 28.3046 26.3926 28.5819 26.3273C28.8591 26.2621 29.0386 26.1805 29.0712 26.0664C29.6747 24.8105 30.2945 23.2937 30.9633 21.5159C31.6321 19.7544 32.1866 18.0745 32.6597 16.4762C32.6923 16.3946 32.7086 16.2968 32.7086 16.1989C32.7738 16.101 32.7086 16.0358 32.5618 16.0358Z" fill="white"/>
<path d="M38.8416 16.0356C37.7162 16.0356 36.5091 16.1172 35.2042 16.2803C35.0574 16.2966 34.9922 16.3618 34.9922 16.476V26.0662C34.9922 26.1315 35.0085 26.1804 35.0411 26.1967C35.0737 26.213 35.1064 26.2293 35.1553 26.2293C36.1013 26.3924 36.9985 26.474 37.8303 26.474C39.2331 26.474 40.2933 25.9684 41.011 24.9571C41.7287 23.9459 42.0876 22.2497 42.0876 19.8685C42.0876 18.6778 41.794 17.7482 41.2068 17.0795C40.6196 16.3782 39.8366 16.0356 38.8416 16.0356ZM40.2281 23.7013C40.0976 24.4026 39.9671 24.8104 39.8366 24.9245C39.6898 25.0713 39.3473 25.1365 38.7927 25.1365C38.4502 25.1365 38.0587 25.1039 37.6183 25.0387C37.1779 24.9735 36.8354 24.9082 36.5907 24.8267V17.4057C37.0637 17.3567 37.5367 17.3404 38.0098 17.3404C39.6246 17.3404 40.4238 18.5637 40.4238 21.0265C40.4238 22.1192 40.3586 23.0163 40.2281 23.7013Z" fill="white"/>
<path d="M52.5104 25.3811C52.5104 25.3322 52.4777 25.1691 52.3962 24.9082C51.9884 23.6523 51.4827 22.1844 50.9119 20.5371C50.3247 18.8898 49.8027 17.4709 49.3297 16.2639C49.2644 16.1008 49.1666 16.0193 49.0524 16.0193C48.824 16.0193 48.5794 16.0519 48.3021 16.1171C48.0248 16.1824 47.8454 16.2639 47.8127 16.3781C47.144 17.6992 46.4589 19.2486 45.7412 21.0264C45.0235 22.8042 44.4363 24.4515 43.9796 25.952C43.947 26.0335 43.9307 26.1314 43.9307 26.2293C43.9307 26.3597 43.9959 26.425 44.1427 26.425C44.4689 26.425 44.8278 26.3924 45.2029 26.3108C45.5781 26.2293 45.7738 26.0825 45.8065 25.8868C45.9043 25.1039 46.0837 24.1742 46.3773 23.1141H50.0311L50.9282 26.1966C50.9771 26.3597 51.0423 26.4413 51.1402 26.4413C51.3196 26.4413 51.5806 26.2945 51.9558 26.0009C52.3309 25.7237 52.5104 25.5116 52.5104 25.3811ZM46.7199 21.8419C47.1603 20.4066 47.6659 19.0203 48.2368 17.6992C48.7425 19.1019 49.1992 20.4882 49.6396 21.8419H46.7199Z" fill="white"/>
<path d="M56.1803 16.0356C55.9683 16.0356 55.6747 16.1661 55.2832 16.4434C54.8918 16.7043 54.696 16.9327 54.696 17.1284V25.1529C54.696 26.1641 54.6797 26.8491 54.6308 27.2242C54.5982 27.5993 54.5166 27.8277 54.4024 27.9255C54.2556 28.0723 54.0109 28.1376 53.6684 28.1376C53.4074 28.1376 53.1138 28.0886 52.8202 28.0071C52.5266 27.9255 52.3472 27.8766 52.3309 27.8766C52.2004 27.8766 52.0373 28.0234 51.8252 28.3333C51.6132 28.6269 51.499 28.8552 51.499 29.002C51.499 29.0998 51.6295 29.1651 51.8905 29.2303C52.1515 29.2793 52.4451 29.3119 52.755 29.3119C53.8805 29.3119 54.7613 28.9041 55.3974 28.0886C56.0335 27.2731 56.3598 26.0662 56.3598 24.4515V16.1987C56.3434 16.0846 56.2945 16.0356 56.1803 16.0356Z" fill="white"/>
</svg>
